<?xml version="1.0" encoding="UTF-8"?>
<svg version="1.1" xmlns="http://www.w3.org/2000/svg" width="95" height="87">
<path d="M0 0 C31.35 0 62.7 0 95 0 C95 28.71 95 57.42 95 87 C63.65 87 32.3 87 0 87 C0 58.29 0 29.58 0 0 Z " fill="#FDFDFD" transform="translate(0,0)"/>
<path d="M0 0 C1.32 0 2.64 0 4 0 C4.04627129 10.78729626 4.08184264 21.57456904 4.10362434 32.3619442 C4.11407667 37.37056347 4.12826221 42.37911502 4.15087891 47.38769531 C4.17255575 52.21818333 4.1845577 57.04860606 4.18975449 61.87913895 C4.19345954 63.72519585 4.20069425 65.57124906 4.21146011 67.41727829 C4.22590657 69.99620124 4.22798083 72.57485191 4.22705078 75.15380859 C4.23424133 75.92272934 4.24143188 76.69165009 4.24884033 77.48387146 C4.22810432 82.77189568 4.22810432 82.77189568 2 85 C-0.89222553 85.18824486 -3.6879814 85.25170246 -6.58056641 85.22705078 C-7.46843338 85.22734283 -8.35630035 85.22763489 -9.27107239 85.22793579 C-12.21466747 85.22653907 -15.15801147 85.21096184 -18.1015625 85.1953125 C-20.13894513 85.19158358 -22.17632954 85.18873604 -24.2137146 85.18673706 C-29.58301725 85.17909104 -34.95221216 85.15943425 -40.32147217 85.1373291 C-45.79763328 85.11689151 -51.27381176 85.10773982 -56.75 85.09765625 C-67.50004741 85.07618926 -78.25001475 85.04204166 -89 85 C-89 84.34 -89 83.68 -89 83 C-59.63 83 -30.26 83 0 83 C0 55.61 0 28.22 0 0 Z " fill="#DBDBDB" transform="translate(91,0)"/>
<path d="M0 0 C1.98 0 3.96 0 6 0 C6.66 1.32 7.32 2.64 8 4 C8.928125 3.34 9.85625 2.68 10.8125 2 C14 0 14 0 17 0 C18.32 2.64 19.64 5.28 21 8 C20.01 9.32 19.02 10.64 18 12 C18.639375 12.70125 19.27875 13.4025 19.9375 14.125 C22.17766012 17.24764744 22.49028761 19.26210916 23 23 C23.66 23.33 24.32 23.66 25 24 C24.01 24.66 23.02 25.32 22 26 C19.49587425 23.97285058 18.80594786 22.51908817 17.5625 19.4375 C16.3454057 15.94845674 16.3454057 15.94845674 13.8125 14.5625 C13.214375 14.376875 12.61625 14.19125 12 14 C12 16.64 12 19.28 12 22 C12.99 22.33 13.98 22.66 15 23 C14.67 23.99 14.34 24.98 14 26 C13.34 25.835 12.68 25.67 12 25.5 C7.02116595 24.67019433 1.85587505 24.38137498 -3 26 C-1.25 23.5 -1.25 23.5 1 21 C2.32 21 3.64 21 5 21 C3.6062718 16.56541027 1.39417765 14.12621626 -2 11 C2.75 11.875 2.75 11.875 5 13 C5 9.7 5 6.4 5 3 C2.03 2.505 2.03 2.505 -1 2 C-0.67 1.34 -0.34 0.68 0 0 Z " fill="#949494" transform="translate(34,27)"/>
<path d="M0 0 C2.875 -0.125 2.875 -0.125 6 0 C8.3968665 2.3968665 8.28281133 3.07028314 8.4140625 6.3515625 C8.45273437 7.20234375 8.49140625 8.053125 8.53125 8.9296875 C8.5621875 9.81914063 8.593125 10.70859375 8.625 11.625 C8.66367187 12.5221875 8.70234375 13.419375 8.7421875 14.34375 C8.83659357 16.5622927 8.92216748 18.78082403 9 21 C10.98 21.66 12.96 22.32 15 23 C14.67 23.99 14.34 24.98 14 26 C13.34 25.835 12.68 25.67 12 25.5 C7.02116595 24.67019433 1.85587505 24.38137498 -3 26 C-1.25 23.5 -1.25 23.5 1 21 C2.32 21 3.64 21 5 21 C3.6062718 16.56541027 1.39417765 14.12621626 -2 11 C2.75 11.875 2.75 11.875 5 13 C5 9.7 5 6.4 5 3 C2.03 2.505 2.03 2.505 -1 2 C-0.67 1.34 -0.34 0.68 0 0 Z " fill="#151515" transform="translate(34,27)"/>
<path d="M0 0 C0.495 1.98 0.495 1.98 1 4 C-29.36 4 -59.72 4 -91 4 C-91 3.67 -91 3.34 -91 3 C-89.88944244 2.99191315 -88.77888489 2.98382629 -87.63467407 2.97549438 C-77.18673054 2.89812833 -66.73891876 2.81041352 -56.29114723 2.71247292 C-50.91938502 2.66245153 -45.54764304 2.61612216 -40.17578125 2.578125 C-34.99506884 2.54134582 -29.81452335 2.49500629 -24.63395309 2.44193649 C-22.65396416 2.42335325 -20.67393939 2.40825995 -18.69389725 2.39665604 C-15.92808051 2.37986059 -13.16264934 2.3508424 -10.39697266 2.31884766 C-9.57194748 2.31668747 -8.7469223 2.31452728 -7.89689636 2.31230164 C-3.47868672 2.42295123 -3.47868672 2.42295123 0 0 Z " fill="#FDFDFD" transform="translate(94,83)"/>
<path d="M0 0 C0.99 0 1.98 0 3 0 C4.32 2.64 5.64 5.28 7 8 C6.01 9.32 5.02 10.64 4 12 C4.639375 12.70125 5.27875 13.4025 5.9375 14.125 C8.17766012 17.24764744 8.49028761 19.26210916 9 23 C9.66 23.33 10.32 23.66 11 24 C10.01 24.66 9.02 25.32 8 26 C4.67639089 23.30945929 3.64092709 19.85261143 2 16 C1.34 15.67 0.68 15.34 0 15 C0.61277612 12.03824877 1.25372522 10.61941217 3 8 C2.505 7.4225 2.01 6.845 1.5 6.25 C0 4 0 4 0 0 Z " fill="#282828" transform="translate(48,27)"/>
<path d="M0 0 C2.875 -0.125 2.875 -0.125 6 0 C8 2 8 2 8.1953125 4.8203125 C8.16050781 6.45613281 8.16050781 6.45613281 8.125 8.125 C8.10695313 9.22070312 8.08890625 10.31640625 8.0703125 11.4453125 C8.04710937 12.28835937 8.02390625 13.13140625 8 14 C6.35 14.66 4.7 15.32 3 16 C1.35 14.35 -0.3 12.7 -2 11 C2.75 11.875 2.75 11.875 5 13 C5 9.7 5 6.4 5 3 C2.03 2.505 2.03 2.505 -1 2 C-0.67 1.34 -0.34 0.68 0 0 Z " fill="#121212" transform="translate(34,27)"/>
<path d="M0 0 C2.375 0.6875 2.375 0.6875 5 2 C6.3125 4.625 6.3125 4.625 7 7 C5.68 8.32 4.36 9.64 3 11 C1.5 10 1.5 10 0 8 C-0.27345479 5.28153765 -0.13491285 2.74322801 0 0 Z " fill="#F5F5F5" transform="translate(46,41)"/>
<path d="M0 0 C2.31 0.66 4.62 1.32 7 2 C7 5.3 7 8.6 7 12 C4.525 11.01 4.525 11.01 2 10 C2.66 8.35 3.32 6.7 4 5 C2.68 5.33 1.36 5.66 0 6 C2 3 2 3 3 2 C2.01 2 1.02 2 0 2 C0 1.34 0 0.68 0 0 Z " fill="#EAEAEA" transform="translate(32,28)"/>
<path d="M0 0 C1.65 1.65 3.3 3.3 5 5 C3.3545622 6.68762851 1.68711423 8.3540349 0 10 C-0.33 10 -0.66 10 -1 10 C-1.02689216 8.52093108 -1.04634621 7.04172517 -1.0625 5.5625 C-1.07410156 4.73878906 -1.08570313 3.91507813 -1.09765625 3.06640625 C-1 1 -1 1 0 0 Z " fill="#EBEBEB" transform="translate(47,30)"/>
<path d="M0 0 C0.33 0 0.66 0 1 0 C1 3.3 1 6.6 1 10 C-1.475 9.01 -1.475 9.01 -4 8 C-3.34 7.01 -2.68 6.02 -2 5 C-1.34 5 -0.68 5 0 5 C0 3.35 0 1.7 0 0 Z " fill="#9C9C9C" transform="translate(38,30)"/>
<path d="M0 0 C0.33 0 0.66 0 1 0 C1.1875 2.875 1.1875 2.875 1 6 C0.01 6.66 -0.98 7.32 -2 8 C-3.65 6.35 -5.3 4.7 -7 3 C-2.25 3.875 -2.25 3.875 0 5 C0 3.35 0 1.7 0 0 Z " fill="#242424" transform="translate(39,35)"/>
<path d="M0 0 C1.485 0.99 1.485 0.99 3 2 C3.99 1.67 4.98 1.34 6 1 C6.66 2.32 7.32 3.64 8 5 C6 6 6 6 3.4375 5.3125 C1 4 1 4 0.1875 1.875 C0.125625 1.25625 0.06375 0.6375 0 0 Z " fill="#CFCFCF" transform="translate(56,46)"/>
<path d="M0 0 C0.66 0 1.32 0 2 0 C2.185625 0.9590625 2.185625 0.9590625 2.375 1.9375 C2.684375 2.9584375 2.684375 2.9584375 3 4 C3.66 4.33 4.32 4.66 5 5 C4.01 5.66 3.02 6.32 2 7 C0 5 0 5 -0.125 2.375 C-0.08375 1.59125 -0.0425 0.8075 0 0 Z " fill="#101010" transform="translate(54,46)"/>
<path d="M0 0 C1.98 0.66 3.96 1.32 6 2 C6 2.33 6 2.66 6 3 C2.7 3.66 -0.6 4.32 -4 5 C-2.68 3.35 -1.36 1.7 0 0 Z " fill="#4B4B4B" transform="translate(35,48)"/>
<path d="M0 0 C0.99 0.99 1.98 1.98 3 3 C1.25 7.875 1.25 7.875 -1 9 C-0.42415568 6.61435923 0.22227595 4.33317216 1 2 C0.34 1.67 -0.32 1.34 -1 1 C-0.67 0.67 -0.34 0.34 0 0 Z " fill="#C4C4C4" transform="translate(50,43)"/>
<path d="M0 0 C0.99 0 1.98 0 3 0 C3.625 1.875 3.625 1.875 4 4 C3.34 4.66 2.68 5.32 2 6 C1.34 5.34 0.68 4.68 0 4 C0 2.68 0 1.36 0 0 Z " fill="#363636" transform="translate(48,27)"/>
</svg>
